<svg width="480" height="232" viewBox="0 0 480 232" fill="none" xmlns="http://www.w3.org/2000/svg">
<path d="M294.238 95.6474C283.276 92.2592 272.31 88.8869 261.36 85.4672C260.023 85.0501 258.815 85.5371 257.558 85.6678C255.504 85.882 255.509 85.9315 255.507 87.9446C255.507 90.4603 255.52 92.9761 255.495 95.4918C255.473 97.8002 254.564 99.723 252.77 101.204C252.347 101.553 252.071 101.968 251.81 102.43C249.185 107.034 245.217 109.54 239.855 109.491C234.549 109.443 230.635 106.916 228.085 102.32C227.865 101.921 227.626 101.567 227.259 101.272C225.299 99.696 224.429 97.6221 224.438 95.1469C224.45 92.4057 224.411 89.6646 224.466 86.9234C224.482 86.0893 224.165 85.9383 223.4 85.7512C220.559 85.0569 217.927 85.616 215.205 86.4838C205.427 89.6015 195.603 92.5703 185.798 95.6C185.73 95.6203 185.673 95.6812 185.611 95.724C185.263 95.5324 184.869 95.4963 184.498 95.298C182.54 94.2407 180.617 93.1181 178.561 92.2389C176.721 91.4522 174.928 90.5685 173.104 89.7457C172.678 89.5541 172.305 89.4008 172.815 88.9162C184.667 84.198 196.514 79.4754 208.373 74.7775C209.012 74.525 209.304 74.1847 209.438 73.5106C210.244 69.462 211.036 65.3998 212.878 61.6465C213.21 60.968 212.771 60.7922 212.361 60.5262C206.117 56.4708 199.874 52.4154 193.632 48.3577C191.319 46.8541 189.004 45.3551 186.704 43.8312C186.151 43.4638 185.611 43.2789 184.922 43.2721C181.252 43.2428 180.48 42.4764 180.405 38.829C180.378 37.517 180.428 36.2006 180.441 34.8886L180.469 34.8683L180.428 34.8638C180.453 34.4806 180.476 34.0996 180.501 33.7186C180.494 33.261 180.687 32.9116 180.995 32.56C181.646 31.8183 182.263 31.0451 182.834 30.2426C183.711 29.0095 183.626 28.8472 182.162 28.6917C182.834 27.5375 183.125 26.2142 183.845 25.0781C184.63 23.8405 185.086 23.818 185.942 25.0488C186.413 25.7273 186.741 26.4757 187.014 27.2489C186.775 27.7855 185.664 27.6209 185.869 28.3377C186.051 28.9757 186.925 28.6421 187.46 28.8517C187.526 28.8765 187.606 28.8652 187.679 28.872C187.364 29.3093 187.339 29.7038 187.872 29.9879C188.658 30.4071 188.783 31.106 188.774 31.9017C188.755 33.7795 188.79 35.6573 188.758 37.5328C188.749 38.0986 188.922 38.4007 189.461 38.6419C200.284 43.448 211.098 48.2743 221.914 53.0962C222.257 53.2494 222.572 53.3712 222.993 53.2224C227.202 51.7459 231.603 51.5137 235.999 51.4077C241.686 51.2702 247.377 51.2026 253.005 52.2688C253.895 52.4379 254.831 52.5935 255.621 52.997C256.695 53.5448 257.567 53.3396 258.592 52.8797C269.15 48.1346 279.725 43.4277 290.306 38.7321C290.951 38.4458 291.215 38.1122 291.192 37.3931C291.137 35.6686 291.192 33.9396 291.169 32.2128C291.158 31.2773 291.187 30.3936 292.205 29.9202C292.494 29.785 292.449 29.4829 292.49 29.2304C293.425 28.8803 293.598 28.2619 293.011 27.3752C292.975 27.3188 292.986 27.2309 292.975 27.1588C293.311 26.2481 293.689 25.3621 294.352 24.625C294.889 24.0276 295.344 23.9284 295.845 24.7062C296.601 25.8761 297.129 27.1362 297.544 28.4527C297.182 28.5564 296.795 28.3084 296.362 28.5902C296.811 29.3679 297.273 30.1502 297.717 30.9414C298.231 31.8566 299.062 32.5667 299.454 33.5586C299.479 34.0365 299.506 34.5166 299.531 34.9968H299.501C299.554 36.7596 299.64 38.5247 299.454 40.2853C299.253 42.2014 298.545 43.1775 296.628 43.1301C294.341 43.076 292.704 44.1761 290.969 45.31C282.933 50.5601 274.883 55.7922 266.828 61.0131C266.273 61.3715 266.009 61.6014 266.455 62.3048C268.602 65.6906 269.785 69.4417 270.475 73.3483C270.616 74.1508 270.949 74.5363 271.723 74.8406C283.479 79.4866 295.219 84.1732 306.962 88.8553C307.205 88.9522 307.433 89.0897 307.67 89.207C307.563 89.3107 307.472 89.4504 307.342 89.509C304.567 90.8097 301.817 92.1488 299.112 93.5915C297.569 94.4143 296.037 95.3881 294.231 95.6541L294.238 95.6474ZM240.206 73.0057C241.797 73.0057 243.389 73.0418 244.975 72.9944C246.346 72.9538 247.703 72.7487 248.914 72.0476C250.721 71.0017 250.86 69.347 249.248 68.0418C248.811 67.6879 248.331 67.3633 247.826 67.1198C247.015 66.7276 247.145 66.4097 247.789 65.9792C248.42 65.5576 248.968 65.0324 249.383 64.3922C250.435 62.7736 250.032 61.3264 248.272 60.5036C247.73 60.2489 247.138 60.0686 246.551 59.9401C244.529 59.5027 242.482 59.496 240.445 59.7823C238.892 60.0009 237.365 60.0483 235.812 59.7642C233.85 59.4058 231.978 59.7687 230.18 60.6276C229.643 60.8846 229.501 61.2971 229.67 61.7029C229.863 62.1695 230.264 61.7637 230.544 61.6713C231.887 61.225 232.227 61.3805 232.577 62.7263C233.258 65.3457 233.094 68.017 233.021 70.6793C232.998 71.5066 232.438 72.0116 231.689 72.3474C231.359 72.4962 230.781 72.5233 230.997 73.1567C231.213 73.7834 231.703 73.4565 232.054 73.3957C234.754 72.9358 237.469 72.7667 240.204 73.0034L240.206 73.0057ZM220.156 63.5063C219.576 63.6686 219.398 64.1194 219.198 64.5342C217.948 67.1041 216.857 69.737 216.159 72.512C215.81 73.8984 215.528 75.3005 215.505 76.7342C215.473 78.7134 215.901 79.2567 217.823 79.7459C219.557 80.1877 221.335 80.3523 223.116 80.4447C233.538 80.9812 243.965 80.8753 254.391 80.5642C256.741 80.4943 259.092 80.323 261.396 79.8135C263.566 79.3334 264.005 78.7405 263.944 76.5268C263.939 76.3397 263.926 76.1526 263.907 75.9655C263.493 71.5787 261.756 67.6338 259.762 63.7745C259.607 63.4725 259.459 63.087 258.928 63.069C259.529 64.5613 260.153 65.9995 260.693 67.4692C261.587 69.9038 262.484 72.3497 262.505 74.9849C262.516 76.5854 262.088 77.0385 260.517 77.3113C260.219 77.3631 259.921 77.4172 259.618 77.4488C246.448 78.7991 233.276 78.8239 220.104 77.4691C217.119 77.1625 216.643 76.5313 217.033 73.5512C217.058 73.3664 217.101 73.1815 217.135 72.9989C217.57 70.7041 218.353 68.513 219.175 66.3331C219.523 65.4044 219.765 64.4373 220.158 63.5085L220.156 63.5063ZM246.004 96.6663C245.982 96.3642 245.959 96.0283 245.934 95.6924C245.879 94.9914 245.695 94.8809 245.053 95.334C243.673 96.3101 242.114 96.1929 241 95.1559C239.944 94.1708 239.742 92.5388 240.643 91.1366C241.126 90.3837 240.752 90.3679 240.172 90.3093C237.831 90.0749 235.425 91.6754 234.355 94.1934C233.424 96.3868 233.9 98.7875 235.614 100.537C237.374 102.333 239.915 102.926 242.189 101.973C244.518 100.997 245.829 99.2429 246.007 96.6685L246.004 96.6663ZM264.72 83.3324C265.162 83.506 265.328 83.5826 265.501 83.6367C275.402 86.849 285.307 90.0523 295.203 93.2872C296.248 93.6275 296.956 93.1226 297.862 92.6402C297.61 92.4959 297.494 92.4035 297.359 92.3562C287.659 88.9094 277.956 85.4649 268.258 82.0159C267.914 81.8942 267.616 81.8829 267.283 82.0565C266.519 82.4577 265.738 82.8297 264.722 83.3324H264.72ZM216.024 83.382C214.287 82.3834 212.999 81.7319 211.059 82.4555C202.126 85.785 193.108 88.8936 184.125 92.0902C183.731 92.2299 183.248 92.2479 182.982 92.7011C184.002 93.3345 184.94 93.5148 186.117 93.1249C193.803 90.5708 201.513 88.0934 209.217 85.5912C211.4 84.8833 213.581 84.1732 216.024 83.382ZM289.48 43.9078C288.772 43.2428 288.226 43.182 287.454 43.5968C279.465 47.8821 271.456 52.1313 263.438 56.3603C262.692 56.7548 262.708 56.9735 263.311 57.4942C264.788 58.7656 264.768 58.7926 266.491 57.7579C271.151 54.9582 275.814 52.1606 280.472 49.3564C283.443 47.5687 286.404 45.7676 289.478 43.9101L289.48 43.9078ZM190.119 43.9146C191.066 44.4691 191.938 44.9809 192.815 45.4903C199.867 49.5998 206.918 53.7093 213.973 57.8143C214.765 58.2764 215.507 57.9608 216.015 56.863C216.393 56.0447 215.503 56.0921 215.143 55.8982C207.517 51.8045 199.867 47.7558 192.245 43.6576C191.471 43.2428 190.864 43.1324 190.119 43.9146Z" fill="url(#paint0_linear_637_12985)"/>
<path d="M315.483 86.6442C316.034 84.7191 316.828 82.8999 317.925 81.2182C318.656 80.1001 319.207 80.0686 320.111 81.0965C321.074 82.1921 321.616 83.5153 322.142 84.8431C321.805 85.4968 321.035 85.5216 320.527 85.9273C320.341 86.0784 319.906 86.0017 319.965 86.3444C320.013 86.6194 320.313 86.7997 320.612 86.8809C321.331 87.077 322.114 87.0004 322.79 87.3791C322.718 88.0531 322.836 88.5535 323.569 88.9075C324.336 89.2772 324.614 90.0639 324.614 90.9047C324.616 95.2216 324.639 99.5385 324.603 103.855C324.587 105.771 323.07 107.293 320.88 107.627C319.141 107.893 317.393 107.789 315.69 107.356C313.825 106.881 312.833 105.817 312.862 103.648C312.89 101.696 312.127 100.859 310.29 100.533C309.031 100.309 307.82 99.818 306.588 99.4483L306.608 99.4416C305.919 99.2387 305.229 99.0358 304.544 98.8329C304.318 98.4497 304.446 98.3528 304.865 98.1657C307.92 96.7928 310.993 95.429 313.616 93.301C315.446 91.8154 317.195 90.26 318.153 88.017C318.513 87.1762 318.205 86.9688 317.431 86.8651C316.783 86.7772 316.077 87.1582 315.483 86.6419V86.6442Z" fill="url(#paint1_linear_637_12985)"/>
<path d="M176.108 98.5757C173.467 99.3895 170.831 100.221 168.179 101.003C167.543 101.191 167.17 101.454 167.247 102.16C167.272 102.381 167.22 102.609 167.204 102.834C166.961 106.346 165.859 107.442 162.273 107.678C160.989 107.764 159.698 107.861 158.433 107.489C156.418 106.896 155.332 105.503 155.33 103.436C155.325 99.4165 155.343 95.3972 155.32 91.3801C155.314 90.2034 155.589 89.2138 156.743 88.6705C157.306 88.4068 157.11 87.9176 157.162 87.4983C157.394 87.4036 157.62 87.2841 157.861 87.2143C158.453 87.0384 159.323 87.0249 159.405 86.3689C159.471 85.8414 158.61 85.6273 158.184 85.244C158.052 85.1246 157.884 85.0457 157.734 84.9487C158.323 83.6976 158.776 82.3766 159.673 81.2878C160.714 80.0255 161.265 80.0435 162.125 81.3758C163.234 83.0912 163.944 84.9803 164.593 86.8987C163.723 86.9077 162.854 86.9167 161.982 86.9257C161.292 86.9325 161.076 87.2368 161.433 87.8409C162.665 89.9194 164.142 91.8197 166.093 93.2624C169.114 95.4986 172.454 97.16 176.062 98.2781C176.345 98.366 175.994 98.4923 176.103 98.5779L176.108 98.5757Z" fill="url(#paint2_linear_637_12985)"/>
<path d="M176.109 98.5758C175.998 98.4901 176.351 98.3638 176.068 98.2759C172.462 97.1578 169.12 95.4964 166.099 93.2602C164.148 91.8175 162.669 89.9172 161.439 87.8388C161.082 87.2346 161.3 86.9303 161.988 86.9235C162.858 86.9145 163.727 86.9055 164.599 86.8965C166.707 87.4713 168.849 87.9402 170.882 88.7517C171.54 89.0155 172.155 89.1395 172.822 88.9118C172.31 89.3987 172.683 89.552 173.109 89.7436C174.93 90.5664 176.726 91.4523 178.566 92.2368C180.622 93.116 182.545 94.2386 184.503 95.2958C184.872 95.4964 185.268 95.5303 185.616 95.7219C186.664 96.8828 188.216 97.2818 189.421 98.2061C189.896 98.5712 190.411 98.8913 190.866 99.2791C191.142 99.5135 191.495 99.7953 191.353 100.219C191.199 100.683 190.727 100.582 190.377 100.564C188.681 100.478 186.976 100.454 185.298 100.23C182.213 99.8201 179.137 99.3309 176.112 98.5758H176.109Z" fill="#232323"/>
<path d="M315.483 86.6439C316.077 87.1601 316.783 86.7791 317.432 86.867C318.206 86.9707 318.513 87.1804 318.153 88.0189C317.195 90.2597 315.446 91.8174 313.616 93.3029C310.991 95.4332 307.92 96.797 304.865 98.1676C304.446 98.3569 304.318 98.4539 304.544 98.8348C303.335 98.4696 302.226 99.0287 301.09 99.2271C297.286 99.8898 293.473 100.46 289.605 100.568C289.238 100.58 288.754 100.672 288.585 100.273C288.394 99.8177 288.815 99.5021 289.129 99.2564C290.256 98.3772 291.44 97.5725 292.667 96.8286C293.225 96.4927 293.924 96.3078 294.236 95.6428C296.043 95.3791 297.575 94.403 299.119 93.5802C301.826 92.1375 304.576 90.7984 307.349 89.4977C307.476 89.4369 307.567 89.2971 307.676 89.1957C310.274 88.3278 312.824 87.3179 315.483 86.6416V86.6439Z" fill="#232323"/>
<path d="M322.79 87.381C322.114 87.0023 321.33 87.0812 320.611 86.8828C320.313 86.8017 320.012 86.6213 319.964 86.3463C319.905 86.0014 320.34 86.0803 320.527 85.9293C321.034 85.5235 321.804 85.4987 322.141 84.845C323.486 84.4392 324.7 83.7381 325.968 83.1588C329.836 81.3892 333.681 79.5655 337.56 77.8185C339.334 77.0205 341.036 76.0399 342.926 75.5124C343.575 75.332 344.44 74.7888 344.893 75.5439C345.287 76.2044 344.508 76.777 344.041 77.2189C340.435 80.6385 336.711 83.9162 332.29 86.308C331.306 86.84 330.275 87.1037 329.148 87.1308C327.029 87.1781 324.911 87.2931 322.792 87.381H322.79Z" fill="#232323"/>
<path d="M157.739 84.9489C157.889 85.0459 158.058 85.127 158.19 85.2442C158.613 85.6275 159.476 85.8416 159.41 86.3691C159.328 87.0251 158.458 87.0364 157.866 87.2144C157.625 87.2866 157.4 87.4061 157.167 87.4985C155.155 87.0296 153.092 87.1716 151.062 87.1558C149.382 87.1423 147.963 86.5968 146.627 85.7695C144.382 84.3786 142.274 82.8029 140.278 81.0626C139.103 80.0369 137.86 79.0834 136.715 78.0171C136.385 77.7083 136.027 77.413 135.765 77.0523C135.412 76.5654 134.661 76.0244 135.173 75.427C135.62 74.9062 136.403 75.3255 136.988 75.5442C140.758 76.9509 144.355 78.7272 147.995 80.4269C151.237 81.9395 154.467 83.4927 157.739 84.9489Z" fill="#232323"/>
<path d="M299.457 33.552C299.065 32.5579 298.234 31.85 297.72 30.9348C297.276 30.1436 296.814 29.3613 296.365 28.5836C296.798 28.3019 297.185 28.5498 297.547 28.4461C300.333 29.3997 303.152 30.2676 305.804 31.5683C308.925 33.0966 312.074 34.5754 314.951 36.5344C315.534 36.9311 316.593 37.3031 316.381 38.0334C316.208 38.6263 315.147 38.3062 314.498 38.2453C311.01 37.9207 307.548 37.5037 304.176 36.4217C302.751 35.964 301.633 35.2472 300.568 34.2982C300.24 34.0051 299.939 33.6354 299.457 33.552Z" fill="#232323"/>
<path d="M182.164 28.6895C183.627 28.845 183.714 29.0073 182.835 30.2404C182.264 31.0429 181.647 31.8161 180.996 32.5577C180.686 32.9094 180.495 33.2588 180.502 33.7164C180.074 33.3783 179.892 33.7953 179.689 34.0072C178.435 35.3169 176.943 36.1848 175.161 36.6199C171.698 37.463 168.215 38.1348 164.641 38.2632C164.286 38.2768 163.912 38.288 163.755 37.9319C163.598 37.5757 163.987 37.4427 164.176 37.2285C165.069 36.2209 166.28 35.6618 167.425 35.0329C172.035 32.4991 176.716 30.1141 181.834 28.7097C181.938 28.6804 182.052 28.6962 182.164 28.6895Z" fill="#232323"/>
<path d="M292.976 27.152C292.987 27.2241 292.976 27.3121 293.012 27.3684C293.598 28.2551 293.424 28.8735 292.491 29.2237C291.252 29.1087 290.009 28.8788 288.773 28.9081C286.863 28.9509 285.313 28.1754 283.826 27.143C281.611 25.6033 279.537 23.8924 277.611 22.0123C277.274 21.6832 276.707 21.2955 276.98 20.8108C277.308 20.227 277.973 20.5921 278.417 20.759C281.383 21.8703 284.227 23.2567 287.095 24.5889C288.7 25.3351 290.294 26.1105 291.89 26.877C292.233 27.0416 292.584 27.1746 292.976 27.1543V27.152Z" fill="#232323"/>
<path d="M187.679 28.8673C187.606 28.8605 187.524 28.874 187.46 28.847C186.925 28.6373 186.051 28.9732 185.869 28.333C185.664 27.6162 186.775 27.7807 187.014 27.2442C188.949 26.3763 190.884 25.5084 192.819 24.6338C195.54 23.4052 198.251 22.1586 200.983 20.9503C201.618 20.6686 202.542 20.1907 202.95 20.7971C203.316 21.3448 202.463 21.9557 201.969 22.3728C199.385 24.5707 196.935 26.9489 193.83 28.4683C193.598 28.581 193.35 28.7253 193.104 28.7365C191.296 28.8154 189.491 28.9755 187.681 28.865L187.679 28.8673Z" fill="#232323"/>
<path d="M180.432 34.8613L180.472 34.8658L180.445 34.8858L180.432 34.8613Z" fill="#232323"/>
<path d="M241.166 67.2617C242.71 67.3181 244.114 67.6494 245.123 68.9141C246.052 70.0773 245.756 71.1526 244.351 71.6327C243.231 72.0159 242.066 72.1737 240.884 71.9821C239.072 71.6891 238.041 70.4898 237.906 68.6774C237.858 68.0349 238.02 67.6788 238.696 67.5999C239.52 67.5029 240.342 67.3767 241.166 67.264V67.2617Z" fill="url(#paint3_linear_637_12985)"/>
<path d="M238.063 63.5555C238.093 61.6079 238.204 61.4659 240.126 61.0263C241.45 60.7219 242.757 60.7219 243.982 61.3847C244.72 61.7837 245.248 62.3901 245.184 63.267C245.12 64.1529 244.503 64.6466 243.697 64.9239C242.286 65.4108 240.824 65.4987 239.342 65.501C238.338 65.501 237.844 65.1696 238.056 64.1168C238.093 63.9365 238.061 63.7449 238.061 63.5578L238.063 63.5555Z" fill="url(#paint4_linear_637_12985)"/>
<path d="M141.526 168.491V114.585H159.873C165.415 114.585 169.749 115.696 172.874 117.917C175.999 120.115 177.561 123.191 177.561 127.146C177.561 130.027 176.646 132.578 174.814 134.8C172.983 136.997 170.518 138.572 167.417 139.524V139.634C171.226 140.122 174.253 141.538 176.499 143.882C178.745 146.226 179.868 149.131 179.868 152.598C179.868 157.432 178.135 161.289 174.668 164.17C171.201 167.051 166.562 168.491 160.752 168.491H141.526ZM151.963 122.605V136.741H157.639C160.447 136.741 162.644 136.082 164.231 134.763C165.818 133.42 166.611 131.541 166.611 129.124C166.611 124.778 163.511 122.605 157.31 122.605H151.963ZM151.963 144.797V160.471H159.141C162.217 160.471 164.609 159.763 166.318 158.347C168.027 156.931 168.882 154.966 168.882 152.451C168.882 147.349 165.513 144.797 158.774 144.797H151.963ZM223.301 168.491H213.12V162.559H212.937C210.105 167.148 206.174 169.443 201.145 169.443C192.136 169.443 187.632 164.023 187.632 153.184V130.002H197.849V152.122C197.849 158.347 200.266 161.46 205.1 161.46C207.468 161.46 209.397 160.618 210.886 158.933C212.375 157.224 213.12 154.941 213.12 152.085V130.002H223.301V168.491ZM293.137 168.491H282.957V146.519C282.957 140.195 280.662 137.034 276.072 137.034C273.948 137.034 272.166 137.998 270.725 139.927C269.309 141.831 268.601 144.126 268.601 146.812V168.491H258.42V146.116C258.42 140.061 256.138 137.034 251.572 137.034C249.399 137.034 247.617 137.937 246.226 139.744C244.834 141.526 244.138 143.918 244.138 146.921V168.491H233.921V130.002H244.138V136.082H244.248C247.129 131.418 251.243 129.087 256.589 129.087C262.009 129.087 265.696 131.553 267.649 136.484C270.579 131.553 274.863 129.087 280.503 129.087C288.926 129.087 293.137 134.263 293.137 144.614V168.491ZM313.425 163.694V186.216H303.208V130.002H313.425V136.082H313.535C316.514 131.418 320.737 129.087 326.206 129.087C331.064 129.087 334.885 130.784 337.668 134.177C340.476 137.571 341.88 142.234 341.88 148.167C341.88 154.563 340.281 159.714 337.083 163.621C333.909 167.502 329.697 169.443 324.448 169.443C319.712 169.443 316.074 167.527 313.535 163.694H313.425ZM313.279 151.755C313.279 154.539 314.084 156.858 315.696 158.713C317.307 160.544 319.37 161.46 321.885 161.46C324.863 161.46 327.195 160.3 328.879 157.981C330.564 155.662 331.406 152.402 331.406 148.203C331.406 140.757 328.464 137.034 322.581 137.034C319.797 137.034 317.551 138.071 315.842 140.146C314.133 142.222 313.279 144.834 313.279 147.983V151.755Z" fill="url(#paint5_linear_637_12985)"/>
<path d="M167.402 211.491L163.198 200.212H146.971L142.87 211.491H139.23L153.534 173.782H156.815L171.042 211.491H167.402ZM155.123 177.551H155.021C154.918 178.115 154.773 178.679 154.585 179.243C154.414 179.79 152.252 185.78 148.099 197.213H162.096L155.892 180.268C155.551 179.345 155.294 178.439 155.123 177.551ZM198.651 209.44C198.651 214.465 197.523 218.173 195.267 220.566C193.011 222.958 189.525 224.155 184.808 224.155C181.954 224.155 179.194 223.488 176.528 222.155V218.951C179.434 220.574 182.194 221.386 184.808 221.386C191.952 221.386 195.524 217.618 195.524 210.081V206.774H195.421C193.319 210.363 190.14 212.158 185.885 212.158C182.501 212.158 179.784 210.944 177.733 208.518C175.682 206.074 174.657 202.784 174.657 198.648C174.657 194.239 175.785 190.684 178.041 187.984C180.297 185.284 183.287 183.934 187.013 183.934C190.858 183.934 193.661 185.498 195.421 188.625H195.524V184.549H198.651V209.44ZM195.524 195.085C195.524 193.564 195.165 192.154 194.447 190.855C193.746 189.556 192.755 188.531 191.473 187.779C190.209 187.027 188.807 186.651 187.269 186.651C184.432 186.651 182.159 187.702 180.45 189.804C178.759 191.906 177.913 194.777 177.913 198.417C177.913 201.767 178.69 204.442 180.245 206.441C181.801 208.424 183.894 209.415 186.526 209.415C189.226 209.415 191.396 208.509 193.037 206.698C194.695 204.869 195.524 202.604 195.524 199.904V195.085ZM220.518 187.779C219.766 187.198 218.766 186.907 217.518 186.907C215.416 186.907 213.707 187.984 212.391 190.137C211.075 192.274 210.417 195.042 210.417 198.443V211.491H207.341V184.549H210.417V190.368H210.52C211.152 188.369 212.109 186.822 213.391 185.728C214.69 184.617 216.194 184.062 217.903 184.062C218.911 184.062 219.783 184.199 220.518 184.472V187.779ZM227.029 177.756C226.414 177.756 225.875 177.542 225.414 177.115C224.969 176.671 224.747 176.107 224.747 175.423C224.747 174.825 224.961 174.304 225.388 173.859C225.833 173.398 226.379 173.167 227.029 173.167C227.678 173.167 228.225 173.381 228.669 173.808C229.131 174.218 229.362 174.757 229.362 175.423C229.362 176.073 229.131 176.628 228.669 177.089C228.225 177.534 227.678 177.756 227.029 177.756ZM225.491 211.491V184.549H228.618V211.491H225.491ZM248.459 176.782V211.491H245.204V176.782H234.335V173.782H259.354V176.782H248.459ZM266.429 198.494C266.429 201.878 267.241 204.544 268.865 206.492C270.505 208.441 272.787 209.415 275.709 209.415C278.751 209.415 281.631 208.338 284.348 206.185V209.312C281.733 211.209 278.615 212.158 274.991 212.158C271.317 212.158 268.42 210.893 266.301 208.364C264.199 205.817 263.148 202.357 263.148 197.982C263.148 195.35 263.669 192.957 264.712 190.804C265.771 188.634 267.233 186.95 269.095 185.754C270.975 184.541 273.052 183.934 275.325 183.934C278.708 183.934 281.332 185.079 283.195 187.369C285.057 189.659 285.989 192.863 285.989 196.982V198.494H266.429ZM282.759 195.726C282.69 192.855 282.007 190.625 280.708 189.035C279.409 187.446 277.589 186.651 275.248 186.651C272.872 186.651 270.916 187.463 269.377 189.086C267.839 190.71 266.882 192.923 266.506 195.726H282.759ZM310.393 210.286C308.257 211.534 305.847 212.158 303.164 212.158C300.754 212.158 298.601 211.602 296.704 210.491C294.807 209.364 293.329 207.766 292.269 205.698C291.227 203.613 290.706 201.254 290.706 198.623C290.706 195.82 291.278 193.291 292.423 191.035C293.568 188.779 295.175 187.036 297.242 185.805C299.327 184.558 301.703 183.934 304.369 183.934C306.573 183.934 308.607 184.361 310.47 185.216V188.574C308.488 187.292 306.377 186.651 304.138 186.651C302.139 186.651 300.361 187.147 298.806 188.138C297.268 189.129 296.072 190.513 295.217 192.291C294.38 194.068 293.961 196.076 293.961 198.315C293.961 201.647 294.816 204.331 296.525 206.364C298.251 208.398 300.558 209.415 303.446 209.415C306.027 209.415 308.342 208.671 310.393 207.185V210.286ZM335.054 211.491V195.572C335.054 192.53 334.498 190.283 333.387 188.83C332.277 187.377 330.568 186.651 328.26 186.651C326.722 186.651 325.321 187.061 324.056 187.882C322.792 188.685 321.792 189.838 321.057 191.342C320.339 192.846 319.98 194.521 319.98 196.367V211.491H316.853V171.629H319.98V189.266H320.083C322.219 185.711 325.253 183.934 329.183 183.934C332.157 183.934 334.396 184.857 335.9 186.702C337.421 188.531 338.181 191.248 338.181 194.854V211.491H335.054Z" fill="url(#paint6_linear_637_12985)"/>
<defs>
<linearGradient id="paint0_linear_637_12985" x1="240.119" y1="24.1377" x2="240.119" y2="109.491" gradientUnits="userSpaceOnUse">
<stop stop-color="#31B38D"/>
<stop offset="1" stop-color="#12572B"/>
</linearGradient>
<linearGradient id="paint1_linear_637_12985" x1="314.528" y1="80.3516" x2="314.528" y2="107.772" gradientUnits="userSpaceOnUse">
<stop stop-color="#31B38D"/>
<stop offset="1" stop-color="#12572B"/>
</linearGradient>
<linearGradient id="paint2_linear_637_12985" x1="165.748" y1="80.3584" x2="165.748" y2="107.757" gradientUnits="userSpaceOnUse">
<stop stop-color="#31B38D"/>
<stop offset="1" stop-color="#12572B"/>
</linearGradient>
<linearGradient id="paint3_linear_637_12985" x1="241.778" y1="67.2617" x2="241.778" y2="72.0637" gradientUnits="userSpaceOnUse">
<stop stop-color="#31B38D"/>
<stop offset="1" stop-color="#12572B"/>
</linearGradient>
<linearGradient id="paint4_linear_637_12985" x1="241.599" y1="60.8301" x2="241.599" y2="65.501" gradientUnits="userSpaceOnUse">
<stop stop-color="#31B38D"/>
<stop offset="1" stop-color="#12572B"/>
</linearGradient>
<linearGradient id="paint5_linear_637_12985" x1="240" y1="114.491" x2="240" y2="168.491" gradientUnits="userSpaceOnUse">
<stop stop-color="#31B38D"/>
<stop offset="1" stop-color="#12572B"/>
</linearGradient>
<linearGradient id="paint6_linear_637_12985" x1="240" y1="173.491" x2="240" y2="211.491" gradientUnits="userSpaceOnUse">
<stop stop-color="#31B38D"/>
<stop offset="1" stop-color="#12572B"/>
</linearGradient>
</defs>
</svg>
