<svg width="534" height="580" viewBox="0 0 534 580" fill="none" xmlns="http://www.w3.org/2000/svg">
<path d="M404.899 191.576C377.069 182.962 349.228 174.388 321.427 165.694C318.034 164.634 314.965 165.872 311.774 166.204C306.561 166.749 306.572 166.875 306.567 171.993C306.567 178.389 306.601 184.784 306.538 191.18C306.48 197.049 304.174 201.938 299.619 205.703C298.544 206.591 297.845 207.646 297.18 208.821C290.516 220.524 280.442 226.897 266.83 226.771C253.358 226.65 243.422 220.226 236.949 208.54C236.388 207.526 235.781 206.626 234.851 205.875C229.874 201.869 227.666 196.596 227.689 190.304C227.718 183.335 227.62 176.365 227.759 169.396C227.799 167.276 226.996 166.892 225.054 166.416C217.84 164.651 211.159 166.072 204.246 168.279C179.422 176.205 154.482 183.753 129.588 191.456C129.415 191.507 129.27 191.662 129.114 191.771C128.23 191.284 127.23 191.192 126.288 190.688C121.317 188 116.433 185.146 111.214 182.91C106.544 180.91 101.99 178.664 97.3599 176.572C96.2791 176.085 95.3312 175.695 96.6259 174.463C126.716 162.468 156.794 150.461 186.901 138.517C188.525 137.875 189.265 137.01 189.606 135.296C191.652 125.003 193.663 114.676 198.339 105.133C199.183 103.408 198.068 102.961 197.027 102.285C181.173 91.9748 165.325 81.6645 149.477 71.3485C143.604 67.5259 137.726 63.7147 131.889 59.8405C130.484 58.9063 129.114 58.4363 127.363 58.4191C118.046 58.3446 116.087 56.3961 115.896 47.1231C115.826 43.7876 115.954 40.4406 115.988 37.1051L116.058 37.0535L115.954 37.0421C116.017 36.0678 116.075 35.0992 116.139 34.1307C116.121 32.9673 116.613 32.0789 117.393 31.1849C119.046 29.2993 120.612 27.3336 122.063 25.2933C124.288 22.1584 124.074 21.7457 120.358 21.3503C122.063 18.416 122.803 15.0518 124.629 12.1633C126.623 9.01693 127.779 8.95962 129.952 12.0888C131.149 13.8139 131.981 15.7166 132.675 17.6824C132.068 19.0464 129.247 18.628 129.767 20.4505C130.23 22.0724 132.449 21.2242 133.808 21.7572C133.975 21.8202 134.177 21.7916 134.362 21.8088C133.565 22.9206 133.501 23.9236 134.854 24.6457C136.848 25.7117 137.166 27.4883 137.142 29.5114C137.096 34.2854 137.183 39.0594 137.102 43.8277C137.079 45.2662 137.518 46.0342 138.888 46.6474C166.365 58.8662 193.82 71.1365 221.279 83.3953C222.152 83.785 222.95 84.0945 224.019 83.7163C234.706 79.9624 245.878 79.3721 257.039 79.1027C271.477 78.7531 285.927 78.5812 300.215 81.292C302.475 81.7218 304.85 82.1173 306.856 83.1432C309.584 84.5358 311.797 84.0143 314.398 82.8451C341.205 70.7811 368.053 58.8146 394.917 46.8767C396.553 46.1488 397.223 45.3006 397.166 43.4724C397.027 39.0881 397.166 34.6923 397.108 30.3023C397.079 27.9239 397.154 25.6773 399.738 24.4737C400.472 24.1299 400.356 23.3619 400.46 22.72C402.834 21.8298 403.275 20.2576 401.784 18.0033C401.691 17.86 401.72 17.6365 401.691 17.4531C402.547 15.1378 403.506 12.8854 405.188 11.0114C406.552 9.49261 407.708 9.24044 408.98 11.2177C410.898 14.1921 412.239 17.3958 413.291 20.7428C412.372 21.0064 411.39 20.376 410.292 21.0924C411.43 23.0696 412.603 25.0583 413.731 27.0699C415.037 29.3968 417.146 31.2021 418.141 33.7238C418.204 34.9388 418.274 36.1595 418.337 37.3802H418.262C418.395 41.8619 418.615 46.3494 418.141 50.8254C417.632 55.6969 415.834 58.1784 410.968 58.0581C405.159 57.9205 401.003 60.7173 396.599 63.6001C376.196 76.9478 355.759 90.2497 335.31 103.523C333.9 104.434 333.229 105.019 334.362 106.807C339.812 115.415 342.818 124.952 344.569 134.884C344.927 136.924 345.771 137.904 347.736 138.678C377.583 150.49 407.39 162.404 437.202 174.308C437.821 174.554 438.399 174.904 439 175.202C438.728 175.466 438.497 175.821 438.168 175.97C431.122 179.277 424.14 182.681 417.274 186.349C413.355 188.441 409.465 190.917 404.882 191.593L404.899 191.576ZM267.72 134.013C271.761 134.013 275.801 134.104 279.829 133.984C283.309 133.881 286.753 133.359 289.828 131.577C294.417 128.918 294.77 124.711 290.678 121.393C289.568 120.493 288.349 119.668 287.066 119.049C285.008 118.051 285.337 117.243 286.973 116.149C288.574 115.077 289.967 113.742 291.019 112.114C293.689 107.999 292.666 104.32 288.198 102.228C286.823 101.58 285.32 101.122 283.829 100.795C278.696 99.6832 273.5 99.666 268.327 100.394C264.385 100.95 260.507 101.07 256.565 100.348C251.583 99.4367 246.832 100.359 242.266 102.543C240.902 103.196 240.544 104.245 240.971 105.277C241.463 106.463 242.48 105.431 243.191 105.196C246.601 104.062 247.462 104.457 248.352 107.879C250.08 114.538 249.664 121.33 249.479 128.098C249.421 130.201 248 131.485 246.098 132.339C245.26 132.717 243.792 132.786 244.341 134.397C244.89 135.99 246.133 135.159 247.023 135.004C253.878 133.835 260.773 133.405 267.715 134.007L267.72 134.013ZM216.817 109.862C215.344 110.274 214.893 111.42 214.384 112.475C211.211 119.008 208.442 125.702 206.668 132.757C205.784 136.282 205.067 139.847 205.009 143.492C204.928 148.524 206.015 149.905 210.893 151.149C215.297 152.272 219.811 152.69 224.331 152.925C250.791 154.289 277.263 154.02 303.735 153.229C309.699 153.051 315.67 152.616 321.519 151.321C327.027 150.1 328.143 148.592 327.987 142.965C327.975 142.489 327.94 142.013 327.894 141.537C326.842 130.385 322.432 120.355 317.369 110.544C316.976 109.776 316.6 108.796 315.254 108.75C316.78 112.544 318.363 116.2 319.733 119.937C322.005 126.127 324.282 132.345 324.334 139.044C324.363 143.114 323.276 144.266 319.288 144.959C318.531 145.091 317.774 145.228 317.005 145.309C283.569 148.742 250.127 148.805 216.685 145.36C209.107 144.581 207.899 142.976 208.888 135.399C208.951 134.93 209.061 134.46 209.148 133.995C210.252 128.161 212.24 122.59 214.326 117.048C215.211 114.687 215.823 112.229 216.823 109.867L216.817 109.862ZM282.442 194.166C282.384 193.398 282.326 192.544 282.262 191.69C282.124 189.908 281.656 189.627 280.026 190.779C276.523 193.261 272.564 192.963 269.738 190.326C267.056 187.822 266.541 183.673 268.83 180.108C270.055 178.194 269.108 178.154 267.634 178.005C261.692 177.409 255.583 181.478 252.866 187.879C250.502 193.456 251.71 199.559 256.063 204.007C260.53 208.574 266.981 210.082 272.755 207.657C278.667 205.176 281.997 200.717 282.447 194.172L282.442 194.166ZM329.958 160.267C331.079 160.708 331.501 160.903 331.94 161.04C357.077 169.207 382.225 177.351 407.35 185.575C410.003 186.441 411.8 185.157 414.1 183.931C413.459 183.564 413.164 183.329 412.823 183.208C388.195 174.446 363.562 165.688 338.94 156.92C338.067 156.61 337.31 156.582 336.466 157.023C334.524 158.043 332.541 158.989 329.963 160.267H329.958ZM206.327 160.393C201.917 157.854 198.646 156.198 193.721 158.037C171.041 166.502 148.147 174.405 125.34 182.532C124.34 182.887 123.115 182.933 122.439 184.085C125.028 185.696 127.409 186.154 130.397 185.163C149.91 178.669 169.486 172.371 189.045 166.009C194.588 164.21 200.125 162.404 206.327 160.393ZM392.819 60.0353C391.022 58.3446 389.634 58.1899 387.675 59.2444C367.394 70.1393 347.06 80.9424 326.704 91.694C324.808 92.6969 324.848 93.2528 326.38 94.5767C330.131 97.8091 330.079 97.8779 334.454 95.2473C346.286 88.1292 358.123 81.0169 369.948 73.8874C377.491 69.3426 385.011 64.7635 392.813 60.041L392.819 60.0353ZM140.558 60.0525C142.963 61.4624 145.176 62.7633 147.402 64.0586C165.308 74.5064 183.208 84.9542 201.119 95.3906C203.131 96.5654 205.015 95.7631 206.304 92.972C207.263 90.8916 205.003 91.012 204.09 90.5191C184.728 80.1114 165.308 69.8183 145.957 59.3992C143.992 58.3446 142.448 58.0638 140.558 60.0525Z" fill="white"/>
<path d="M458.911 168.607C460.302 163.763 462.309 159.185 465.081 154.953C466.927 152.14 468.319 152.06 470.602 154.647C473.034 157.404 474.403 160.734 475.732 164.075C474.881 165.72 472.937 165.782 471.654 166.803C471.183 167.183 470.084 166.99 470.234 167.852C470.355 168.545 471.114 168.998 471.867 169.203C473.684 169.696 475.663 169.503 477.371 170.456C477.187 172.152 477.486 173.412 479.337 174.302C481.275 175.232 481.977 177.212 481.977 179.328C481.983 190.191 482.04 201.053 481.948 211.916C481.908 216.738 478.078 220.567 472.546 221.406C468.152 222.076 463.735 221.815 459.434 220.726C454.724 219.529 452.217 216.851 452.291 211.394C452.36 206.482 450.434 204.378 445.793 203.555C442.613 202.993 439.553 201.757 436.442 200.827L436.494 200.81C434.751 200.299 433.009 199.789 431.278 199.278C430.709 198.314 431.031 198.07 432.089 197.599C439.806 194.144 447.57 190.713 454.195 185.358C458.819 181.62 463.235 177.706 465.656 172.061C466.565 169.946 465.789 169.424 463.833 169.163C462.194 168.942 460.412 169.9 458.911 168.601V168.607Z" fill="white"/>
<path d="M104.829 198.65C98.1179 200.7 91.4181 202.795 84.6778 204.764C83.0636 205.236 82.1147 205.9 82.3115 207.677C82.3751 208.233 82.242 208.807 82.2015 209.374C81.5825 218.219 78.7822 220.978 69.6698 221.574C66.4066 221.79 63.1262 222.034 59.9093 221.097C54.789 219.604 52.0292 216.096 52.0235 210.89C52.0119 200.768 52.0582 190.646 52.0003 180.529C51.983 177.566 52.683 175.074 55.6164 173.705C57.0454 173.041 56.5479 171.809 56.6809 170.753C57.2711 170.515 57.8438 170.214 58.4571 170.038C59.9614 169.595 62.1715 169.561 62.3798 167.909C62.5476 166.581 60.3606 166.041 59.2787 165.076C58.9431 164.775 58.515 164.577 58.1331 164.333C59.6316 161.182 60.783 157.855 63.0625 155.113C65.7066 151.934 67.1067 151.979 69.2937 155.335C72.1113 159.655 73.9165 164.412 75.5654 169.243C73.3552 169.266 71.1451 169.289 68.9292 169.311C67.1761 169.328 66.6265 170.095 67.5349 171.616C70.6649 176.85 74.4198 181.636 79.3781 185.27C87.0557 190.901 95.5433 195.085 104.714 197.901C105.431 198.122 104.54 198.44 104.818 198.656L104.829 198.65Z" fill="white"/>
<path d="M104.45 198.633C104.168 198.414 105.059 198.092 104.346 197.867C95.246 195.008 86.8122 190.76 79.1885 185.043C74.2649 181.354 70.5306 176.496 67.4282 171.182C66.5263 169.637 67.0778 168.859 68.8128 168.842C71.0074 168.819 73.2021 168.796 75.4024 168.772C80.7224 170.242 86.1285 171.441 91.2589 173.516C92.9192 174.19 94.4704 174.507 96.1537 173.925C94.8611 175.17 95.8033 175.562 96.8776 176.052C101.474 178.155 106.007 180.421 110.649 182.426C115.836 184.674 120.691 187.544 125.632 190.247C126.563 190.76 127.562 190.847 128.441 191.337C131.084 194.305 135.002 195.325 138.041 197.688C139.242 198.622 140.54 199.44 141.689 200.432C142.385 201.031 143.275 201.751 142.919 202.835C142.528 204.022 141.339 203.763 140.454 203.717C136.174 203.498 131.871 203.434 127.637 202.864C119.852 201.815 112.091 200.564 104.455 198.633H104.45Z" fill="#232323"/>
<path d="M458.8 168.778C460.317 170.074 462.119 169.118 463.775 169.338C465.752 169.599 466.536 170.125 465.618 172.23C463.171 177.854 458.707 181.764 454.033 185.493C447.331 190.84 439.49 194.263 431.689 197.703C430.62 198.179 430.294 198.422 430.87 199.378C427.783 198.462 424.952 199.865 422.052 200.363C412.339 202.026 402.602 203.458 392.727 203.729C391.791 203.758 390.553 203.99 390.123 202.988C389.634 201.845 390.71 201.053 391.512 200.436C394.389 198.23 397.412 196.21 400.545 194.342C401.969 193.499 403.753 193.035 404.55 191.366C409.165 190.704 413.077 188.254 417.018 186.189C423.929 182.567 430.951 179.206 438.031 175.942C438.356 175.789 438.589 175.438 438.868 175.183C445.5 173.005 452.01 170.47 458.8 168.772V168.778Z" fill="#232323"/>
<path d="M477.235 170.772C475.507 169.812 473.505 170.012 471.666 169.509C470.904 169.304 470.136 168.846 470.014 168.149C469.863 167.275 470.974 167.475 471.451 167.092C472.749 166.063 474.715 166 475.576 164.343C479.015 163.314 482.116 161.536 485.357 160.067C495.242 155.581 505.069 150.957 514.984 146.527C519.516 144.504 523.869 142.018 528.698 140.68C530.356 140.223 532.567 138.846 533.725 140.76C534.731 142.435 532.741 143.887 531.549 145.007C522.332 153.677 512.814 161.988 501.514 168.052C499.001 169.401 496.365 170.069 493.485 170.138C488.068 170.258 482.657 170.55 477.24 170.772H477.235Z" fill="#232323"/>
<path d="M57.7472 164.358C58.1288 164.602 58.5567 164.806 58.892 165.101C59.9674 166.065 62.1586 166.604 61.9909 167.931C61.7828 169.581 59.5742 169.61 58.071 170.058C57.4582 170.239 56.8858 170.54 56.2961 170.772C51.1852 169.593 45.9471 169.95 40.7899 169.91C36.5232 169.876 32.9212 168.504 29.5275 166.422C23.8269 162.923 18.4732 158.959 13.4027 154.581C10.4194 152 7.26272 149.601 4.3546 146.918C3.51627 146.141 2.60857 145.399 1.94369 144.491C1.04755 143.266 -0.860362 141.905 0.440487 140.402C1.57367 139.092 3.56253 140.147 5.04838 140.697C14.6226 144.236 23.7575 148.705 33.0022 152.981C41.2351 156.787 49.4391 160.694 57.7472 164.358Z" fill="#232323"/>
<path d="M417.867 33.6175C416.87 31.1179 414.756 29.3382 413.447 27.0369C412.317 25.0475 411.141 23.0806 410 21.1252C411.101 20.4167 412.085 21.0401 413.006 20.7794C420.097 23.177 427.268 25.3592 434.017 28.6297C441.959 32.4726 449.97 36.1908 457.292 41.1164C458.775 42.114 461.469 43.0492 460.93 44.8856C460.49 46.3763 457.79 45.5715 456.139 45.4184C447.265 44.6022 438.454 43.5536 429.875 40.833C426.249 39.6824 423.404 37.8799 420.693 35.4937C419.859 34.7568 419.095 33.8273 417.867 33.6175Z" fill="#232323"/>
<path d="M119.856 20.7725C123.575 21.1784 123.795 21.602 121.562 24.8203C120.111 26.9148 118.544 28.9328 116.89 30.8685C116.103 31.7863 115.617 32.6982 115.635 33.8926C114.547 33.0101 114.085 34.0985 113.57 34.6515C110.383 38.0698 106.595 40.335 102.067 41.4705C93.2706 43.6709 84.4222 45.4241 75.3424 45.7595C74.4402 45.7948 73.4918 45.8242 73.0927 44.8946C72.6937 43.9651 73.6826 43.6179 74.1626 43.059C76.4297 40.4291 79.5064 38.97 82.4154 37.3285C94.1265 30.7155 106.017 24.4908 119.018 20.8254C119.284 20.7489 119.573 20.7901 119.856 20.7725Z" fill="#232323"/>
<path d="M402.041 17.5527C402.07 17.7344 402.041 17.9559 402.134 18.0979C403.631 20.332 403.187 21.8902 400.803 22.7725C397.639 22.4828 394.464 21.9034 391.307 21.9773C386.428 22.0852 382.468 20.1313 378.67 17.53C373.012 13.6506 367.715 9.33962 362.795 4.60262C361.934 3.77336 360.486 2.79643 361.184 1.57526C362.022 0.104181 363.72 1.02432 364.854 1.44463C372.431 4.24479 379.694 7.7379 387.021 11.0947C391.121 12.9747 395.191 14.9286 399.268 16.8597C400.146 17.2744 401.041 17.6095 402.041 17.5584V17.5527Z" fill="#232323"/>
<path d="M133.695 21.684C133.509 21.667 133.299 21.7009 133.136 21.6332C131.767 21.109 129.53 21.9489 129.064 20.3481C128.54 18.5557 131.383 18.9672 131.994 17.6257C136.946 15.4557 141.898 13.2856 146.849 11.0987C153.811 8.02683 160.749 4.90987 167.739 1.88873C169.365 1.18418 171.73 -0.010753 172.773 1.50545C173.71 2.87511 171.526 4.40259 170.262 5.44533C163.65 10.9409 157.382 16.8873 149.436 20.6863C148.842 20.9681 148.207 21.3289 147.577 21.357C142.952 21.5543 138.332 21.9545 133.701 21.6783L133.695 21.684Z" fill="#232323"/>
<path d="M270.002 118.772C273.781 118.925 277.221 119.822 279.69 123.246C281.965 126.395 281.24 129.306 277.801 130.606C275.058 131.643 272.204 132.07 269.311 131.552C264.873 130.758 262.348 127.512 262.019 122.605C261.902 120.866 262.298 119.901 263.953 119.688C265.971 119.425 267.984 119.084 270.002 118.779V118.772Z" fill="white"/>
<path d="M262.138 109.774C262.212 104.771 262.492 104.406 267.308 103.277C270.629 102.495 273.904 102.495 276.974 104.197C278.823 105.222 280.147 106.78 279.987 109.033C279.827 111.309 278.281 112.578 276.261 113.29C272.723 114.541 269.06 114.767 265.345 114.772C262.829 114.772 261.59 113.921 262.121 111.217C262.212 110.753 262.133 110.261 262.133 109.78L262.138 109.774Z" fill="white"/>
<path d="M453.707 394.972V452.241H427.726V309.3H453.707V324.758H453.986C461.56 312.9 472.3 306.972 486.206 306.972C498.56 306.972 508.276 311.286 515.353 319.916C522.492 328.545 526.062 340.402 526.062 355.488C526.062 371.753 521.996 384.852 513.863 394.785C505.792 404.656 495.084 409.592 481.736 409.592C469.692 409.592 460.442 404.718 453.986 394.972H453.707ZM453.334 364.614C453.334 371.691 455.383 377.589 459.48 382.307C463.577 386.963 468.823 389.291 475.218 389.291C482.791 389.291 488.72 386.342 493.004 380.445C497.287 374.547 499.429 366.259 499.429 355.581C499.429 336.646 491.948 327.179 476.987 327.179C469.91 327.179 464.198 329.818 459.853 335.094C455.507 340.371 453.334 347.014 453.334 355.022V364.614Z" fill="white"/>
<path d="M402.117 407.17H376.229V351.298C376.229 335.219 370.393 327.179 358.722 327.179C353.321 327.179 348.789 329.631 345.126 334.536C341.526 339.378 339.725 345.214 339.725 352.043V407.17H313.837V350.273C313.837 334.877 308.033 327.179 296.424 327.179C290.898 327.179 286.367 329.476 282.828 334.07C279.289 338.602 277.52 344.686 277.52 352.322V407.17H251.539V309.3H277.52V324.758H277.799C285.125 312.9 295.586 306.972 309.181 306.972C322.963 306.972 332.338 313.242 337.304 325.782C344.754 313.242 355.649 306.972 369.99 306.972C391.408 306.972 402.117 320.133 402.117 346.455V407.17Z" fill="white"/>
<path d="M224.534 407.172H198.647V392.086H198.181C190.98 403.758 180.985 409.593 168.196 409.593C145.288 409.593 133.834 395.811 133.834 368.247V309.301H159.815V365.547C159.815 381.377 165.961 389.293 178.253 389.293C184.275 389.293 189.179 387.151 192.966 382.867C196.753 378.522 198.647 372.717 198.647 365.454V309.301H224.534V407.172Z" fill="white"/>
<path d="M16.5947 407.171V270.096H63.2486C77.341 270.096 88.3604 272.92 96.3068 278.57C104.253 284.157 108.226 291.979 108.226 302.036C108.226 309.362 105.898 315.849 101.242 321.499C96.5862 327.086 90.316 331.09 82.4317 333.511V333.791C92.1163 335.032 99.8144 338.633 105.526 344.593C111.237 350.553 114.093 357.94 114.093 366.756C114.093 379.048 109.685 388.857 100.87 396.182C92.0542 403.508 80.2588 407.171 65.4835 407.171H16.5947ZM43.1344 290.489V326.434H57.5682C64.7075 326.434 70.2948 324.758 74.3301 321.406C78.3654 317.991 80.383 313.211 80.383 307.065C80.383 296.015 72.4987 290.489 56.7301 290.489H43.1344ZM43.1344 346.921V386.777H61.3862C69.2084 386.777 75.2924 384.977 79.638 381.376C83.9837 377.775 86.1565 372.778 86.1565 366.383C86.1565 353.408 77.5894 346.921 60.455 346.921H43.1344Z" fill="white"/>
<path d="M508.705 547.026V506.546C508.705 498.811 507.293 493.097 504.468 489.403C501.644 485.709 497.298 483.862 491.431 483.862C487.52 483.862 483.957 484.905 480.741 486.991C477.525 489.033 474.983 491.967 473.114 495.791C471.289 499.615 470.376 503.874 470.376 508.567V547.026H462.424V445.664H470.376V490.511H470.637C476.069 481.472 483.783 476.952 493.778 476.952C501.339 476.952 507.032 479.299 510.856 483.992C514.724 488.642 516.658 495.552 516.658 504.721V547.026H508.705Z" fill="white"/>
<path d="M445.997 543.963C440.565 547.135 434.437 548.721 427.615 548.721C421.487 548.721 416.012 547.309 411.188 544.484C406.364 541.616 402.605 537.553 399.911 532.295C397.26 526.993 395.935 520.996 395.935 514.304C395.935 507.177 397.39 500.745 400.302 495.009C403.214 489.273 407.299 484.84 412.557 481.711C417.858 478.539 423.899 476.953 430.678 476.953C436.284 476.953 441.455 478.039 446.192 480.212V488.751C441.151 485.492 435.784 483.862 430.092 483.862C425.007 483.862 420.488 485.123 416.533 487.643C412.622 490.163 409.58 493.683 407.407 498.203C405.278 502.722 404.213 507.829 404.213 513.521C404.213 521.996 406.386 528.818 410.732 533.99C415.121 539.161 420.987 541.747 428.332 541.747C434.894 541.747 440.782 539.856 445.997 536.076V543.963Z" fill="white"/>
<path d="M334.207 513.978C334.207 522.582 336.271 529.361 340.4 534.316C344.571 539.27 350.373 541.747 357.804 541.747C365.539 541.747 372.862 539.009 379.771 533.533V541.486C373.122 546.31 365.192 548.721 355.979 548.721C346.636 548.721 339.27 545.506 333.881 539.074C328.536 532.599 325.863 523.799 325.863 512.674C325.863 505.982 327.189 499.898 329.84 494.422C332.534 488.903 336.249 484.623 340.986 481.581C345.766 478.495 351.046 476.953 356.826 476.953C365.431 476.953 372.101 479.864 376.838 485.687C381.575 491.511 383.943 499.659 383.943 510.132V513.978H334.207ZM375.73 506.938C375.556 499.637 373.818 493.966 370.515 489.924C367.212 485.883 362.584 483.862 356.631 483.862C350.59 483.862 345.614 485.926 341.703 490.055C337.792 494.183 335.359 499.811 334.403 506.938H375.73Z" fill="white"/>
<path d="M288.509 458.766V547.026H280.23V458.766H252.592V451.139H316.212V458.766H288.509Z" fill="white"/>
<path d="M234.015 461.243C232.451 461.243 231.082 460.7 229.909 459.613C228.779 458.483 228.214 457.049 228.214 455.311C228.214 453.79 228.757 452.465 229.843 451.335C230.973 450.161 232.364 449.575 234.015 449.575C235.667 449.575 237.057 450.118 238.187 451.204C239.361 452.247 239.947 453.616 239.947 455.311C239.947 456.962 239.361 458.375 238.187 459.548C237.057 460.678 235.667 461.243 234.015 461.243ZM230.104 547.026V478.517H238.057V547.026H230.104Z" fill="white"/>
<path d="M217.458 486.73C215.546 485.252 213.004 484.513 209.832 484.513C204.486 484.513 200.141 487.251 196.795 492.727C193.448 498.159 191.775 505.199 191.775 513.847V547.026H183.953V478.516H191.775V493.313H192.036C193.644 488.229 196.078 484.296 199.337 481.515C202.64 478.69 206.464 477.278 210.809 477.278C213.373 477.278 215.59 477.625 217.458 478.321V486.73Z" fill="white"/>
<path d="M161.855 541.812C161.855 554.588 158.987 564.018 153.251 570.102C147.514 576.186 138.649 579.228 126.655 579.228C119.398 579.228 112.38 577.533 105.6 574.144V565.995C112.988 570.124 120.006 572.188 126.655 572.188C144.82 572.188 153.902 562.606 153.902 543.441V535.033H153.642C148.297 544.158 140.214 548.721 129.393 548.721C120.788 548.721 113.879 545.636 108.664 539.465C103.449 533.251 100.842 524.885 100.842 514.369C100.842 503.157 103.71 494.118 109.446 487.252C115.183 480.386 122.787 476.953 132.261 476.953C142.039 476.953 149.166 480.929 153.642 488.882H153.902V478.517H161.855V541.812ZM153.902 505.308C153.902 501.441 152.99 497.855 151.165 494.553C149.383 491.25 146.862 488.642 143.603 486.73C140.387 484.818 136.824 483.862 132.913 483.862C125.699 483.862 119.919 486.535 115.574 491.88C111.271 497.225 109.12 504.526 109.12 513.782C109.12 522.3 111.098 529.101 115.052 534.185C119.007 539.226 124.33 541.747 131.022 541.747C137.889 541.747 143.408 539.443 147.58 534.837C151.795 530.187 153.902 524.429 153.902 517.563V505.308Z" fill="white"/>
<path d="M82.3952 547.026L71.7049 518.345H30.4427L20.0131 547.026H10.7568L47.1301 451.139H55.4738L91.6515 547.026H82.3952ZM51.1716 460.721H50.9109C50.6501 462.155 50.2807 463.59 49.8027 465.024C49.3681 466.414 43.8709 481.646 33.3109 510.718H68.9019L53.1271 467.631C52.258 465.284 51.6062 462.981 51.1716 460.721Z" fill="white"/>
</svg>
