<svg width="368" height="113" viewBox="0 0 368 113" fill="none" xmlns="http://www.w3.org/2000/svg">
<path d="M0.390625 29.3125C3.125 31.5781 6.25781 32.7109 9.78906 32.7109C11.9141 32.7109 13.5 32.3438 14.5469 31.6094C15.5938 30.8594 16.1172 29.8828 16.1172 28.6797C16.1172 27.6328 15.6797 26.6719 14.8047 25.7969C13.9297 24.9219 11.8125 23.7656 8.45312 22.3281C5.59375 21.0469 3.51562 19.6094 2.21875 18.0156C0.9375 16.4062 0.296875 14.5234 0.296875 12.3672C0.296875 9.25781 1.5 6.82812 3.90625 5.07812C6.3125 3.3125 9.46875 2.42969 13.375 2.42969C16.875 2.42969 19.6328 2.86719 21.6484 3.74219V10.1406C19.4141 8.60938 16.7188 7.84375 13.5625 7.84375C11.7031 7.84375 10.1953 8.19531 9.03906 8.89844C7.89844 9.60156 7.32812 10.5703 7.32812 11.8047C7.32812 12.7891 7.72656 13.6875 8.52344 14.5C9.32031 15.3125 11.1875 16.3672 14.125 17.6641C17.5 19.1328 19.8438 20.6797 21.1562 22.3047C22.4688 23.9141 23.125 25.8438 23.125 28.0938C23.125 31.3438 21.9609 33.8281 19.6328 35.5469C17.3203 37.25 14.0703 38.1016 9.88281 38.1016C5.99219 38.1016 2.82812 37.4531 0.390625 36.1562V29.3125ZM49.9375 27.0156H33.4844C33.75 31.2031 36.125 33.2969 40.6094 33.2969C43.3438 33.2969 45.7812 32.5781 47.9219 31.1406V36.1094C45.6406 37.4375 42.7109 38.1016 39.1328 38.1016C35.3047 38.1016 32.3203 36.9922 30.1797 34.7734C28.0547 32.5547 26.9922 29.4531 26.9922 25.4688C26.9922 21.5625 28.1328 18.3906 30.4141 15.9531C32.7109 13.5 35.5781 12.2734 39.0156 12.2734C42.4531 12.2734 45.1328 13.3281 47.0547 15.4375C48.9766 17.5469 49.9375 20.4453 49.9375 24.1328V27.0156ZM43.7734 22.7266C43.7734 18.8203 42.1641 16.8672 38.9453 16.8672C37.6016 16.8672 36.4141 17.3984 35.3828 18.4609C34.3672 19.5234 33.7344 20.9453 33.4844 22.7266H43.7734ZM77.2891 37.4922H70.7734V33.6953H70.6562C68.8438 36.6328 66.3281 38.1016 63.1094 38.1016C57.3438 38.1016 54.4609 34.6328 54.4609 27.6953V12.8594H61V27.0156C61 31 62.5469 32.9922 65.6406 32.9922C67.1562 32.9922 68.3906 32.4531 69.3438 31.375C70.2969 30.2812 70.7734 28.8203 70.7734 26.9922V12.8594H77.2891V37.4922ZM119.102 36.5312C117.336 37.5781 114.922 38.1016 111.859 38.1016C108.172 38.1016 105.18 36.9688 102.883 34.7031C100.602 32.4219 99.4609 29.4453 99.4609 25.7734C99.4609 21.5859 100.688 18.2891 103.141 15.8828C105.594 13.4766 108.867 12.2734 112.961 12.2734C115.633 12.2734 117.68 12.6641 119.102 13.4453V19.1875C117.445 17.9688 115.617 17.3594 113.617 17.3594C111.336 17.3594 109.508 18.0781 108.133 19.5156C106.758 20.9375 106.07 22.8672 106.07 25.3047C106.07 27.7109 106.719 29.5938 108.016 30.9531C109.312 32.3125 111.094 32.9922 113.359 32.9922C115.344 32.9922 117.258 32.3672 119.102 31.1172V36.5312ZM124.938 14.4297C126.047 13.7891 127.484 13.2734 129.25 12.8828C131.016 12.4766 132.602 12.2734 134.008 12.2734C140.664 12.2734 143.992 15.6484 143.992 22.3984V37.4922H137.758V33.8594H137.641C135.984 36.6875 133.523 38.1016 130.258 38.1016C127.883 38.1016 126 37.4375 124.609 36.1094C123.219 34.7656 122.523 32.9688 122.523 30.7188C122.523 26.0156 125.32 23.2891 130.914 22.5391L137.781 21.6016C137.781 18.4609 136.25 16.8906 133.188 16.8906C130.266 16.8906 127.516 17.8047 124.938 19.6328V14.4297ZM132.883 26.2422C130.07 26.6016 128.664 27.8594 128.664 30.0156C128.664 30.9844 129 31.7734 129.672 32.3828C130.344 32.9922 131.25 33.2969 132.391 33.2969C133.953 33.2969 135.242 32.75 136.258 31.6562C137.273 30.5469 137.781 29.1562 137.781 27.4844V25.6094L132.883 26.2422ZM173.617 37.4922H167.102V33.8594H166.984C165.234 36.6875 162.617 38.1016 159.133 38.1016C156.039 38.1016 153.562 36.9922 151.703 34.7734C149.844 32.5547 148.914 29.5391 148.914 25.7266C148.914 21.6797 149.953 18.4297 152.031 15.9766C154.109 13.5078 156.812 12.2734 160.141 12.2734C163.375 12.2734 165.656 13.4688 166.984 15.8594H167.102V1.04688H173.617V37.4922ZM167.195 23.4062C167.195 21.6719 166.664 20.2344 165.602 19.0938C164.539 17.9375 163.203 17.3594 161.594 17.3594C159.719 17.3594 158.234 18.0938 157.141 19.5625C156.062 21.0312 155.523 23.0234 155.523 25.5391C155.523 27.8984 156.047 29.7344 157.094 31.0469C158.141 32.3438 159.555 32.9922 161.336 32.9922C163.055 32.9922 164.461 32.3125 165.555 30.9531C166.648 29.5938 167.195 27.8594 167.195 25.75V23.4062ZM181.047 14.4297C182.156 13.7891 183.594 13.2734 185.359 12.8828C187.125 12.4766 188.711 12.2734 190.117 12.2734C196.773 12.2734 200.102 15.6484 200.102 22.3984V37.4922H193.867V33.8594H193.75C192.094 36.6875 189.633 38.1016 186.367 38.1016C183.992 38.1016 182.109 37.4375 180.719 36.1094C179.328 34.7656 178.633 32.9688 178.633 30.7188C178.633 26.0156 181.43 23.2891 187.023 22.5391L193.891 21.6016C193.891 18.4609 192.359 16.8906 189.297 16.8906C186.375 16.8906 183.625 17.8047 181.047 19.6328V14.4297ZM188.992 26.2422C186.18 26.6016 184.773 27.8594 184.773 30.0156C184.773 30.9844 185.109 31.7734 185.781 32.3828C186.453 32.9922 187.359 33.2969 188.5 33.2969C190.062 33.2969 191.352 32.75 192.367 31.6562C193.383 30.5469 193.891 29.1562 193.891 27.4844V25.6094L188.992 26.2422ZM205.703 31.1641C208.141 32.6953 210.547 33.4609 212.922 33.4609C215.984 33.4609 217.516 32.5938 217.516 30.8594C217.516 29.6562 216.305 28.6406 213.883 27.8125C210.352 26.625 208.109 25.4609 207.156 24.3203C206.203 23.1641 205.727 21.6875 205.727 19.8906C205.727 17.5156 206.695 15.6562 208.633 14.3125C210.57 12.9531 213.062 12.2734 216.109 12.2734C218.234 12.2734 220.359 12.6094 222.484 13.2812V18.6016C220.562 17.4609 218.461 16.8906 216.18 16.8906C214.977 16.8906 214.008 17.1172 213.273 17.5703C212.539 18.0234 212.172 18.625 212.172 19.375C212.172 20.6094 213.195 21.5859 215.242 22.3047C217.57 23.1484 219.281 23.8594 220.375 24.4375C221.469 25 222.32 25.7734 222.93 26.7578C223.539 27.7422 223.844 28.8984 223.844 30.2266C223.844 32.7266 222.844 34.6641 220.844 36.0391C218.859 37.4141 216.234 38.1016 212.969 38.1016C210.219 38.1016 207.797 37.6641 205.703 36.7891V31.1641ZM242.547 37.2344C241.438 37.7969 239.891 38.0781 237.906 38.0781C232.859 38.0781 230.336 35.4062 230.336 30.0625V17.8281H226.258V12.8594H230.336V7.35156L236.852 5.45312V12.8594H242.547V17.8281H236.852V28.9141C236.852 31.6328 237.922 32.9922 240.062 32.9922C240.953 32.9922 241.781 32.7422 242.547 32.2422V37.2344ZM262.281 18.8828C261.422 18.3672 260.367 18.1094 259.117 18.1094C257.477 18.1094 256.164 18.7812 255.18 20.125C254.195 21.4531 253.703 23.2422 253.703 25.4922V37.4922H247.164V12.8594H253.703V17.5938H253.773C254.977 14.1562 257.141 12.4375 260.266 12.4375C261.156 12.4375 261.828 12.5469 262.281 12.7656V18.8828ZM264.555 25.3281C264.555 21.2969 265.742 18.1172 268.117 15.7891C270.492 13.4453 273.711 12.2734 277.773 12.2734C281.695 12.2734 284.789 13.4219 287.055 15.7188C289.336 18 290.477 21.0625 290.477 24.9062C290.477 28.9062 289.297 32.1094 286.938 34.5156C284.594 36.9062 281.414 38.1016 277.398 38.1016C273.461 38.1016 270.336 36.9531 268.023 34.6562C265.711 32.3438 264.555 29.2344 264.555 25.3281ZM271.164 25.2344C271.164 30.4062 273.312 32.9922 277.609 32.9922C281.75 32.9922 283.82 30.3438 283.82 25.0469C283.82 19.9219 281.742 17.3594 277.586 17.3594C275.555 17.3594 273.977 18.0625 272.852 19.4688C271.727 20.8594 271.164 22.7812 271.164 25.2344ZM327.625 6.15625C326.734 5.76562 325.82 5.57031 324.883 5.57031C322.352 5.57031 321.086 7.01562 321.086 9.90625V12.8594H326.734V17.8281H321.086V37.4922H314.57V17.8281H310.398V12.8594H314.57V9.55469C314.57 6.78906 315.438 4.58594 317.172 2.94531C318.906 1.30469 321.203 0.484375 324.062 0.484375C325.547 0.484375 326.734 0.632812 327.625 0.929688V6.15625ZM329.102 25.3281C329.102 21.2969 330.289 18.1172 332.664 15.7891C335.039 13.4453 338.258 12.2734 342.32 12.2734C346.242 12.2734 349.336 13.4219 351.602 15.7188C353.883 18 355.023 21.0625 355.023 24.9062C355.023 28.9062 353.844 32.1094 351.484 34.5156C349.141 36.9062 345.961 38.1016 341.945 38.1016C338.008 38.1016 334.883 36.9531 332.57 34.6562C330.258 32.3438 329.102 29.2344 329.102 25.3281ZM335.711 25.2344C335.711 30.4062 337.859 32.9922 342.156 32.9922C346.297 32.9922 348.367 30.3438 348.367 25.0469C348.367 19.9219 346.289 17.3594 342.133 17.3594C340.102 17.3594 338.523 18.0625 337.398 19.4688C336.273 20.8594 335.711 22.7812 335.711 25.2344ZM359.758 4.75C359.758 3.75 360.109 2.91406 360.812 2.24219C361.531 1.57031 362.453 1.23438 363.578 1.23438C364.672 1.23438 365.586 1.57031 366.32 2.24219C367.055 2.89844 367.422 3.73438 367.422 4.75C367.422 5.76562 367.055 6.60938 366.32 7.28125C365.602 7.95312 364.688 8.28906 363.578 8.28906C362.469 8.28906 361.555 7.94531 360.836 7.25781C360.117 6.57031 359.758 5.73438 359.758 4.75ZM360.273 37.4922V12.8594H366.789V37.4922H360.273ZM59.6641 91.0156H43.2109C43.4766 95.2031 45.8516 97.2969 50.3359 97.2969C53.0703 97.2969 55.5078 96.5781 57.6484 95.1406V100.109C55.3672 101.438 52.4375 102.102 48.8594 102.102C45.0312 102.102 42.0469 100.992 39.9062 98.7734C37.7812 96.5547 36.7188 93.4531 36.7188 89.4688C36.7188 85.5625 37.8594 82.3906 40.1406 79.9531C42.4375 77.5 45.3047 76.2734 48.7422 76.2734C52.1797 76.2734 54.8594 77.3281 56.7812 79.4375C58.7031 81.5469 59.6641 84.4453 59.6641 88.1328V91.0156ZM53.5 86.7266C53.5 82.8203 51.8906 80.8672 48.6719 80.8672C47.3281 80.8672 46.1406 81.3984 45.1094 82.4609C44.0938 83.5234 43.4609 84.9453 43.2109 86.7266H53.5ZM87.4141 101.492H80.8984V87.6875C80.8984 83.4688 79.375 81.3594 76.3281 81.3594C74.7969 81.3594 73.5469 81.9375 72.5781 83.0938C71.625 84.2344 71.1484 85.6875 71.1484 87.4531V101.492H64.6094V76.8594H71.1484V80.8203H71.2188C73.0312 77.7891 75.6953 76.2734 79.2109 76.2734C84.6797 76.2734 87.4141 79.6562 87.4141 86.4219V101.492ZM116.078 76.8594L106.703 101.492H99.4609L90.5547 76.8594H97.5859L102.438 92.8438C102.891 94.3594 103.172 95.7188 103.281 96.9219H103.398C103.523 95.75 103.805 94.4297 104.242 92.9609L109.234 76.8594H116.078ZM118.984 68.75C118.984 67.75 119.336 66.9141 120.039 66.2422C120.758 65.5703 121.68 65.2344 122.805 65.2344C123.898 65.2344 124.812 65.5703 125.547 66.2422C126.281 66.8984 126.648 67.7344 126.648 68.75C126.648 69.7656 126.281 70.6094 125.547 71.2812C124.828 71.9531 123.914 72.2891 122.805 72.2891C121.695 72.2891 120.781 71.9453 120.062 71.2578C119.344 70.5703 118.984 69.7344 118.984 68.75ZM119.5 101.492V76.8594H126.016V101.492H119.5ZM133.352 78.4297C134.461 77.7891 135.898 77.2734 137.664 76.8828C139.43 76.4766 141.016 76.2734 142.422 76.2734C149.078 76.2734 152.406 79.6484 152.406 86.3984V101.492H146.172V97.8594H146.055C144.398 100.688 141.938 102.102 138.672 102.102C136.297 102.102 134.414 101.438 133.023 100.109C131.633 98.7656 130.938 96.9688 130.938 94.7188C130.938 90.0156 133.734 87.2891 139.328 86.5391L146.195 85.6016C146.195 82.4609 144.664 80.8906 141.602 80.8906C138.68 80.8906 135.93 81.8047 133.352 83.6328V78.4297ZM141.297 90.2422C138.484 90.6016 137.078 91.8594 137.078 94.0156C137.078 94.9844 137.414 95.7734 138.086 96.3828C138.758 96.9922 139.664 97.2969 140.805 97.2969C142.367 97.2969 143.656 96.75 144.672 95.6562C145.688 94.5469 146.195 93.1562 146.195 91.4844V89.6094L141.297 90.2422ZM182.031 101.492H175.516V97.8594H175.398C173.648 100.688 171.031 102.102 167.547 102.102C164.453 102.102 161.977 100.992 160.117 98.7734C158.258 96.5547 157.328 93.5391 157.328 89.7266C157.328 85.6797 158.367 82.4297 160.445 79.9766C162.523 77.5078 165.227 76.2734 168.555 76.2734C171.789 76.2734 174.07 77.4688 175.398 79.8594H175.516V65.0469H182.031V101.492ZM175.609 87.4062C175.609 85.6719 175.078 84.2344 174.016 83.0938C172.953 81.9375 171.617 81.3594 170.008 81.3594C168.133 81.3594 166.648 82.0938 165.555 83.5625C164.477 85.0312 163.938 87.0234 163.938 89.5391C163.938 91.8984 164.461 93.7344 165.508 95.0469C166.555 96.3438 167.969 96.9922 169.75 96.9922C171.469 96.9922 172.875 96.3125 173.969 94.9531C175.062 93.5938 175.609 91.8594 175.609 89.75V87.4062ZM187.375 89.3281C187.375 85.2969 188.562 82.1172 190.938 79.7891C193.312 77.4453 196.531 76.2734 200.594 76.2734C204.516 76.2734 207.609 77.4219 209.875 79.7188C212.156 82 213.297 85.0625 213.297 88.9062C213.297 92.9062 212.117 96.1094 209.758 98.5156C207.414 100.906 204.234 102.102 200.219 102.102C196.281 102.102 193.156 100.953 190.844 98.6562C188.531 96.3438 187.375 93.2344 187.375 89.3281ZM193.984 89.2344C193.984 94.4062 196.133 96.9922 200.43 96.9922C204.57 96.9922 206.641 94.3438 206.641 89.0469C206.641 83.9219 204.562 81.3594 200.406 81.3594C198.375 81.3594 196.797 82.0625 195.672 83.4688C194.547 84.8594 193.984 86.7812 193.984 89.2344ZM242.055 98.4219V112.836H235.516V76.8594H242.055V80.75H242.125C244.031 77.7656 246.734 76.2734 250.234 76.2734C253.344 76.2734 255.789 77.3594 257.57 79.5312C259.367 81.7031 260.266 84.6875 260.266 88.4844C260.266 92.5781 259.242 95.875 257.195 98.375C255.164 100.859 252.469 102.102 249.109 102.102C246.078 102.102 243.75 100.875 242.125 98.4219H242.055ZM241.961 90.7812C241.961 92.5625 242.477 94.0469 243.508 95.2344C244.539 96.4062 245.859 96.9922 247.469 96.9922C249.375 96.9922 250.867 96.25 251.945 94.7656C253.023 93.2812 253.562 91.1953 253.562 88.5078C253.562 83.7422 251.68 81.3594 247.914 81.3594C246.133 81.3594 244.695 82.0234 243.602 83.3516C242.508 84.6797 241.961 86.3516 241.961 88.3672V90.7812ZM266.195 78.4297C267.305 77.7891 268.742 77.2734 270.508 76.8828C272.273 76.4766 273.859 76.2734 275.266 76.2734C281.922 76.2734 285.25 79.6484 285.25 86.3984V101.492H279.016V97.8594H278.898C277.242 100.688 274.781 102.102 271.516 102.102C269.141 102.102 267.258 101.438 265.867 100.109C264.477 98.7656 263.781 96.9688 263.781 94.7188C263.781 90.0156 266.578 87.2891 272.172 86.5391L279.039 85.6016C279.039 82.4609 277.508 80.8906 274.445 80.8906C271.523 80.8906 268.773 81.8047 266.195 83.6328V78.4297ZM274.141 90.2422C271.328 90.6016 269.922 91.8594 269.922 94.0156C269.922 94.9844 270.258 95.7734 270.93 96.3828C271.602 96.9922 272.508 97.2969 273.648 97.2969C275.211 97.2969 276.5 96.75 277.516 95.6562C278.531 94.5469 279.039 93.1562 279.039 91.4844V89.6094L274.141 90.2422ZM306.789 82.8828C305.93 82.3672 304.875 82.1094 303.625 82.1094C301.984 82.1094 300.672 82.7812 299.688 84.125C298.703 85.4531 298.211 87.2422 298.211 89.4922V101.492H291.672V76.8594H298.211V81.5938H298.281C299.484 78.1562 301.648 76.4375 304.773 76.4375C305.664 76.4375 306.336 76.5469 306.789 76.7656V82.8828ZM311.148 78.4297C312.258 77.7891 313.695 77.2734 315.461 76.8828C317.227 76.4766 318.812 76.2734 320.219 76.2734C326.875 76.2734 330.203 79.6484 330.203 86.3984V101.492H323.969V97.8594H323.852C322.195 100.688 319.734 102.102 316.469 102.102C314.094 102.102 312.211 101.438 310.82 100.109C309.43 98.7656 308.734 96.9688 308.734 94.7188C308.734 90.0156 311.531 87.2891 317.125 86.5391L323.992 85.6016C323.992 82.4609 322.461 80.8906 319.398 80.8906C316.477 80.8906 313.727 81.8047 311.148 83.6328V78.4297ZM319.094 90.2422C316.281 90.6016 314.875 91.8594 314.875 94.0156C314.875 94.9844 315.211 95.7734 315.883 96.3828C316.555 96.9922 317.461 97.2969 318.602 97.2969C320.164 97.2969 321.453 96.75 322.469 95.6562C323.484 94.5469 323.992 93.1562 323.992 91.4844V89.6094L319.094 90.2422Z" fill="url(#paint0_linear_637_12925)"/>
<defs>
<linearGradient id="paint0_linear_637_12925" x1="184" y1="-14.5078" x2="184" y2="113.492" gradientUnits="userSpaceOnUse">
<stop stop-color="#31B38D"/>
<stop offset="1" stop-color="#12572B"/>
</linearGradient>
</defs>
</svg>
